<?xml version="1.0" standalone="no"?><!DOCTYPE svg PUBLIC "-//W3C//DTD SVG 1.1//EN" "http://www.w3.org/Graphics/SVG/1.1/DTD/svg11.dtd"><svg class="icon" width="200px" height="200.00px" viewBox="0 0 1024 1024" version="1.1" xmlns="http://www.w3.org/2000/svg"><path d="M65 69.167l894 0 0 30-894 0 0-30Z" fill="#2F323E" /><path d="M65 353.396l894 0 0 30-894 0 0-30Z" fill="#2F323E" /><path d="M414.008 635.845 65 635.845l0 30 344.673 0C410.606 655.709 412.036 645.689 414.008 635.845z" fill="#2F323E" /><path d="M65 924.992l0 30 478.414 0c-13.848-8.906-26.763-19.043-38.866-30L65 924.992z" fill="#2F323E" /><path d="M916.251 692.819c0.016-114.731-92.995-207.726-207.741-207.726-114.714 0-207.725 92.994-207.725 207.726 0 114.73 92.995 207.755 207.725 207.755 51.813 0 99.032-19.177 135.413-50.547l93.281 93.266L959 921.498l-93.28-93.267C897.119 791.834 916.251 744.66 916.251 692.819zM838.188 813.119l-4.516 4.847-4.862 4.517c-32.829 30.465-75.564 47.264-120.301 47.264-97.54 0-176.896-79.356-176.896-176.927 0-97.54 79.356-176.897 176.912-176.897 0.015 0 0.045 0 0.061 0 47.22 0 91.625 18.424 125.042 51.811 33.4 33.417 51.795 77.821 51.78 125.087C885.423 737.555 868.655 780.274 838.188 813.119z" fill="#2F323E" /></svg>