<?xml version="1.0" standalone="no"?><!DOCTYPE svg PUBLIC "-//W3C//DTD SVG 1.1//EN" "http://www.w3.org/Graphics/SVG/1.1/DTD/svg11.dtd"><svg class="icon" width="200px" height="200.00px" viewBox="0 0 1024 1024" version="1.1" xmlns="http://www.w3.org/2000/svg"><path d="M170.833 408.167C113.484 408.167 67 454.651 67 512s46.484 103.833 103.833 103.833c57.349 0 103.833-46.484 103.833-103.833S228.182 408.167 170.833 408.167zM170.833 586.167c-40.893 0-74.167-33.274-74.167-74.167 0-40.894 33.274-74.167 74.167-74.167C211.727 437.833 245 471.106 245 512 245 552.893 211.727 586.167 170.833 586.167z" fill="#2F323E" /><path d="M512 408.167c-57.349 0-103.833 46.484-103.833 103.833S454.651 615.833 512 615.833 615.833 569.349 615.833 512 569.349 408.167 512 408.167zM512 586.167c-40.893 0-74.167-33.274-74.167-74.167 0-40.894 33.274-74.167 74.167-74.167 40.893 0 74.166 33.273 74.166 74.167C586.166 552.893 552.893 586.167 512 586.167z" fill="#2F323E" /><path d="M853.167 408.167c-57.35 0-103.834 46.484-103.834 103.833s46.484 103.833 103.834 103.833C910.516 615.833 957 569.349 957 512S910.516 408.167 853.167 408.167zM853.167 586.167C812.273 586.167 779 552.893 779 512c0-40.894 33.273-74.167 74.167-74.167 40.893 0 74.166 33.273 74.166 74.167C927.333 552.893 894.06 586.167 853.167 586.167z" fill="#2F323E" /></svg>