<?xml version="1.0" standalone="no"?><!DOCTYPE svg PUBLIC "-//W3C//DTD SVG 1.1//EN" "http://www.w3.org/Graphics/SVG/1.1/DTD/svg11.dtd"><svg class="icon" width="200px" height="200.00px" viewBox="0 0 1024 1024" version="1.1" xmlns="http://www.w3.org/2000/svg"><path d="M511.998465 957.112614c-55.67195 0-109.699448-10.912537-160.582325-32.43369-49.126884-20.779256-93.238544-50.516534-131.110083-88.38705-37.870516-37.871539-67.608817-81.982176-88.388073-131.10906-21.522176-50.881854-32.43369-104.908328-32.43369-160.578232 0-71.071685 18.382673-141.16509 53.160757-202.702632 33.694403-59.621912 82.179674-110.404506 140.214439-146.856719 19.144012-12.023848 44.408419-6.252401 56.43329 12.889565 12.023848 19.142989 6.253424 44.408419-12.889565 56.43329-46.560432 29.246091-85.458347 69.984934-112.486934 117.811196-27.847232 49.27424-42.566468 105.439424-42.566468 162.424276 0 88.318488 34.393321 171.34853 96.843652 233.799884 62.451354 62.450331 145.485489 96.844675 233.806024 96.844675 88.321558 0 171.355693-34.393321 233.807047-96.844675 62.450331-62.450331 96.844675-145.481396 96.844675-233.799884 0-57.730842-15.084557-114.538663-43.624567-164.2826-27.713178-48.304146-67.50137-89.177042-115.061572-118.201076-19.296485-11.776208-25.393343-36.965913-13.618159-56.262398 11.776208-19.295462 36.96489-25.39232 56.262398-13.618159 59.283198 36.177967 108.877733 87.128383 143.42455 147.34279 35.641755 62.122873 54.480822 133.018549 54.480822 205.021443 0 55.669904-10.912537 109.696378-32.43369 160.579255-20.779256 49.125861-50.516534 93.236498-88.388073 131.108037-37.871539 37.870516-81.983199 67.607794-131.111107 88.38705C621.697913 946.200076 567.669392 957.112614 511.998465 957.112614z" fill="#ffffff" /><path d="M511.999488 538.580379c-22.605857 0-40.932248-18.326391-40.932248-40.932248L471.06724 107.819634c0-22.605857 18.326391-40.932248 40.932248-40.932248 22.606881 0 40.932248 18.326391 40.932248 40.932248l0 389.828496C552.931736 520.253988 534.606369 538.580379 511.999488 538.580379z" fill="#ffffff" /></svg>