<?xml version="1.0" standalone="no"?><!DOCTYPE svg PUBLIC "-//W3C//DTD SVG 1.1//EN" "http://www.w3.org/Graphics/SVG/1.1/DTD/svg11.dtd"><svg class="icon" width="200px" height="200.00px" viewBox="0 0 1024 1024" version="1.1" xmlns="http://www.w3.org/2000/svg"><path d="M581.369199 125.982141l8.466541 60.394664c5.079925 36.462573 26.867159 68.522544 58.814243 86.923162 0.451549 0.338662 1.015985 0.564436 1.467534 0.903098 18.852166 11.062948 40.187851 16.820196 61.523537 16.820196 15.014001 0 30.140889-2.822181 44.477566-8.579429l55.314739-22.35167 69.425642 120.224892-48.654393 37.930107c-28.786242 22.464557-45.154889 56.89516-45.042002 93.357734v3.725278c-0.451549 36.462573 16.368647 71.006063 45.042002 93.470621l47.97707 37.365671L810.530261 766.27847l-57.233822-23.141881c-14.22379-5.757248-29.237791-8.579429-44.251791-8.579429-20.884136 0-41.655385 5.531474-60.281777 16.142873-0.338662 0.225774-0.677323 0.338662-1.015985 0.564436-32.172859 18.400617-54.298754 50.347701-59.37868 87.148936l-8.466541 60.394665h-138.851285l-8.805203-63.216845c-4.967038-35.672362-26.189836-66.942123-57.346709-85.004079l-1.693309-1.015985c-18.513505-10.950061-39.397641-16.594422-60.394664-16.594422-14.675339 0-29.463565 2.822181-43.461581 8.466542l-58.13692 23.480542-69.425642-120.224892 50.347702-39.284754c28.560467-22.238783 44.929115-56.556499 44.816227-92.793297v-0.564436-1.580422c0.225774-36.236799-16.25576-70.554514-44.816227-92.793297l-49.670379-38.720317 69.425643-120.224893 57.346709 23.141881c14.22379 5.757248 29.237791 8.579429 44.138904 8.579429 21.109911 0 42.106934-5.644361 60.846213-16.481535 0.338662-0.225774 0.677323-0.338662 1.015985-0.564436 31.947084-18.400617 53.734318-50.234814 58.814244-86.697387l8.466541-60.620439h138.851285m0-64.119943H442.517914c-31.947084 0-58.92713 23.480542-63.329732 55.088965l-8.466542 60.620439c-2.370632 16.820196-12.304707 31.495535-27.318708 40.074964-0.451549 0.225774-0.790211 0.451549-1.241759 0.677324-8.805203 5.079925-18.739279 7.789218-28.673355 7.789218-6.999008 0-13.772241-1.354647-20.206813-3.951053L235.934296 199.245949c-7.789218-3.160842-15.917098-4.628376-23.932091-4.628377-22.238783 0-43.687355 11.740271-55.427627 32.059972L87.148936 346.902436c-15.917098 27.65737-9.143865 62.765296 16.029986 82.407673l49.670378 38.720318c12.982031 10.046963 20.3197 25.399625 20.206813 41.994047v2.596406c0 16.707309-7.337669 32.172859-20.206813 42.219821l-50.347701 39.284754c-25.173851 19.642377-32.059971 54.86319-16.029986 82.407673L155.784368 796.983795c11.740271 20.3197 33.188844 32.059971 55.427626 32.059971 8.014993 0 16.142873-1.467534 23.932092-4.628376l58.136919-23.480543c6.208797-2.483519 12.756256-3.725278 19.52949-3.725278 9.708301 0 19.416602 2.709293 27.883144 7.676331 0.677323 0.451549 1.354647 0.790211 2.144857 1.24176 14.22379 8.240767 23.706317 22.238783 25.964062 38.494543l8.805203 63.216845c4.402602 31.608422 31.495535 55.088965 63.329732 55.088964h138.851284c31.947084 0 58.92713-23.480542 63.329733-55.088964l8.466541-60.394665c2.370632-16.933083 12.530482-31.608422 27.770257-40.413626l1.24176-0.677323c8.692316-4.967038 18.513505-7.676331 28.334693-7.676331 6.999008 0 13.772241 1.354647 20.3197 3.951053l57.233822 23.14188c7.789218 3.160842 15.917098 4.628376 23.932091 4.628377 22.238783 0 43.687355-11.627384 55.427627-32.059972l69.425642-120.224892c15.917098-27.65737 9.143865-62.765296-16.029986-82.407673l-47.97707-37.365671c-12.982031-10.15985-20.658362-25.964061-20.432587-42.219821v-4.628377c0-16.933083 7.450557-32.624407 20.432587-42.784257l48.654393-37.930107c25.173851-19.642377 32.059971-54.86319 16.029986-82.407673l-69.425642-120.224892c-11.740271-20.3197-33.188844-32.059971-55.427627-32.059972-8.014993 0-16.142873 1.467534-23.932091 4.628377l-55.314739 22.35167c-6.434572 2.596406-13.320692 3.951053-20.432588 3.951052-10.15985 0-20.206813-2.822181-29.124903-8.014992-0.564436-0.338662-1.241759-0.677323-1.806196-1.015985-15.014001-8.692316-25.060964-23.367655-27.431595-40.413626l-8.466542-60.394665c-4.176827-31.72131-31.269761-55.201852-63.216844-55.201852z" fill="#ffffff" /><path d="M511.266233 658.471172c-38.720317 0-75.182891-15.239775-102.953147-42.897145-28.221806-28.221806-43.461581-65.474589-42.897145-104.985117 0.564436-38.494543 15.917098-74.618454 43.348694-101.711388 27.431595-27.092934 63.894168-42.106934 102.501598-42.106934 19.642377 0 38.833205 3.838166 56.782273 11.514496 10.724286 4.515489 20.884136 10.385625 30.253776 17.384633 10.611399 7.902106 12.869143 22.916106 4.854151 33.640392-7.902106 10.611399-22.916106 12.869143-33.640393 4.854151-6.321684-4.628376-13.094918-8.579429-20.3197-11.627384-12.078933-5.079925-24.835189-7.676331-38.042994-7.676331-25.851174 0-50.347701 10.046963-68.748319 28.221805-18.400617 18.174843-28.786242 42.445596-29.124904 68.29677-0.338662 26.41561 9.934076 51.363686 28.786242 70.32874 18.965053 18.965053 44.026017 29.124904 70.32874 28.786242 25.851174-0.338662 50.121927-10.724286 68.29677-29.124903s28.221806-42.784258 28.221806-68.748319c0-13.207805 10.724286-24.044979 24.044978-24.044979s24.044979 10.724286 24.044979 24.044979c0 38.60743-14.901113 74.957116-42.106934 102.501598-27.092934 27.431595-63.216845 42.784258-101.711388 43.348694h-1.919083z" fill="#ffffff" /></svg>