<?xml version="1.0" standalone="no"?><!DOCTYPE svg PUBLIC "-//W3C//DTD SVG 1.1//EN" "http://www.w3.org/Graphics/SVG/1.1/DTD/svg11.dtd"><svg class="icon" width="200px" height="200.00px" viewBox="0 0 1024 1024" version="1.1" xmlns="http://www.w3.org/2000/svg"><path d="M474.5 887.3H239.7c-52.2 0-94.7-42.5-94.7-94.7V186.7c0-52.2 42.5-94.7 94.7-94.7h499.9c52.2 0 94.7 42.5 94.7 94.7v340.8c0 10.5-8.5 18.9-18.9 18.9s-18.9-8.5-18.9-18.9V186.7c0-31.3-25.5-56.8-56.8-56.8h-500c-31.3 0-56.8 25.5-56.8 56.8v605.9c0 31.3 25.5 56.8 56.8 56.8h234.8c10.5 0 18.9 8.5 18.9 18.9s-8.5 19-18.9 19z" fill="#2F323E" /><path d="M685.8 932c-106.5 0-193.1-86.6-193.1-193.1s86.6-193.1 193.1-193.1c30.3 0 59.4 6.8 86.4 20.3 9.3 4.7 13.1 16.1 8.5 25.4-4.7 9.3-16.1 13.1-25.4 8.5-21.6-10.8-45-16.3-69.4-16.3-85.6 0-155.3 69.7-155.3 155.3s69.6 155.3 155.3 155.3S841.2 824.6 841.2 739c0-14.2-1.9-28.3-5.7-41.9-2.8-10.1 3.1-20.5 13.1-23.3 10.1-2.8 20.5 3.1 23.3 13.1 4.7 16.9 7.1 34.4 7.1 52.1 0 106.4-86.7 193-193.2 193zM679 255.6H300.3c-6.3 0-11.4-5.1-11.4-11.4s5.1-11.4 11.4-11.4H679c6.3 0 11.4 5.1 11.4 11.4s-5.2 11.4-11.4 11.4zM679 388.8H300.3c-6.3 0-11.4-5.1-11.4-11.4 0-6.3 5.1-11.4 11.4-11.4H679c6.3 0 11.4 5.1 11.4 11.4-0.1 6.3-5.2 11.4-11.4 11.4zM679 522.1H300.3c-6.3 0-11.4-5.1-11.4-11.4 0-6.3 5.1-11.4 11.4-11.4H679c6.3 0 11.4 5.1 11.4 11.4-0.1 6.3-5.2 11.4-11.4 11.4z" fill="#2F323E" /><path d="M756.8 791c-1.9 0-3.9-0.5-5.7-1.5l-71-40.7c-3.5-2-5.7-5.8-5.7-9.9V628.5c0-6.3 5.1-11.4 11.4-11.4 6.3 0 11.4 5.1 11.4 11.4v103.8l65.3 37.5c5.4 3.1 7.3 10.1 4.2 15.5-2.1 3.6-5.9 5.7-9.9 5.7z" fill="#2F323E" /></svg>